<?xml version="1.0" standalone="no"?>
<!DOCTYPE svg PUBLIC "-//W3C//DTD SVG 20010904//EN"
 "http://www.w3.org/TR/2001/REC-SVG-20010904/DTD/svg10.dtd">
<svg version="1.0" xmlns="http://www.w3.org/2000/svg"
 width="200.000000pt" height="200.000000pt" viewBox="0 0 200.000000 200.000000"
 preserveAspectRatio="xMidYMid meet">
<metadata>
Created by potrace 1.14, written by Peter Selinger 2001-2017
</metadata>
<g transform="translate(0.000000,200.000000) scale(0.100000,-0.100000)"
fill="#000000" stroke="none">
<path d="M651 1809 c-61 -24 -109 -117 -107 -204 1 -33 5 -40 21 -40 13 0 21
8 23 22 4 27 56 72 85 74 124 9 156 -17 211 -169 l32 -88 -208 -473 c-115
-261 -206 -476 -204 -479 4 -4 90 -5 171 -3 31 1 32 4 180 336 81 185 151 332
155 328 4 -4 47 -125 95 -268 89 -263 114 -327 137 -356 47 -56 134 -68 198
-25 52 34 80 96 83 183 2 67 2 68 -25 71 -17 2 -28 -2 -28 -8 0 -31 -34 -79
-62 -89 -72 -25 -132 0 -166 71 -23 46 -33 75 -207 583 -156 458 -169 487
-236 524 -39 22 -106 27 -148 10z"/>
</g>
</svg>
